<?xml version="1.0" encoding="UTF-8"?>
<!DOCTYPE svg PUBLIC "-//W3C//DTD SVG 1.1//EN" "http://www.w3.org/Graphics/SVG/1.1/DTD/svg11.dtd">
<!-- Creator: CorelDRAW 2019 (64-Bit Not for commercial use) -->
<svg xmlns="http://www.w3.org/2000/svg" xml:space="preserve" width="2in" height="1.13787in" version="1.1" style="shape-rendering:geometricPrecision; text-rendering:geometricPrecision; image-rendering:optimizeQuality; fill-rule:evenodd; clip-rule:evenodd"
viewBox="0 0 65.8 37.44"
 xmlns:xlink="http://www.w3.org/1999/xlink"
 xmlns:xodm="http://www.corel.com/coreldraw/odm/2003">
 <defs>
  <style type="text/css">
   <![CDATA[
    .str0 {stroke:black;stroke-width:0.23;stroke-miterlimit:2.61313}
    .fil0 {fill:#CCCCFF}
    .fil1 {fill:black}
    .fil2 {fill:#848484}
    .fil3 {fill:#F4F4F4}
    .fil4 {fill:white}
   ]]>
  </style>
 </defs>
 <rect class="fil0" x="812.37" y="133.9" width="375.16" height="220.53"/>
 <g id="Layer_x0020_1">
  <metadata id="CorelCorpID_0Corel-Layer"/>
  <g id="_1794657920736">
   <path class="fil1" d="M35.64 33.29c0.1,0.07 0.2,0.23 0.29,0.35 0.38,0.52 0.85,0.08 1.13,-0.04 0.44,-0.2 1.07,-0.36 1.45,0.06 0.52,0.58 0.04,1.45 0.04,1.91 0,0.31 0.21,0.79 0.07,1.29 -0.03,0.1 -0.04,0.17 -0.14,0.2 -0.05,-0.09 -0.12,-0.47 -0.18,-0.66 -0.12,-0.39 -0.31,-0.82 -0.71,-1 -0.1,-0.05 -0.2,-0.06 -0.32,-0.1 -0.26,-0.09 -0.69,-0.38 -0.9,-0.58 -0.23,-0.22 -1.13,-1.15 -0.73,-1.43zm30.16 -29.47l0 0.17c-0,0.04 -0.01,0.08 -0.01,0.13 -0.02,0.13 -0,0.26 -0.01,0.39l-0.09 1.06c-0.08,0.67 -0.2,1.32 -0.33,1.97 -0.16,0.82 -0.36,1.67 -0.6,2.47l-0.52 1.79 -1.56 4.59c-0.04,0.11 -0.07,0.19 -0.11,0.29l-0.41 1.12c-0.03,0.09 -0.06,0.18 -0.1,0.28 -0.33,0.83 -0.62,1.68 -0.96,2.5 -0.2,0.49 -0.58,1.47 -0.74,1.95l-0.41 1.12c-0.16,0.49 -0.35,0.95 -0.47,1.47 -0.05,0.24 -0.14,0.41 -0.05,0.63l0.28 0.85c0.06,0.21 0.13,0.38 0.19,0.59l1.2 4.17c0.06,0.2 0.11,0.39 0.17,0.61 0.05,0.21 0.11,0.39 0.16,0.59l0.32 1.23c0.08,0.28 0.94,3.49 0.94,3.65l-56.63 0c0,-0.47 0.36,-1.7 0.52,-2.19 0.02,-0.06 0.04,-0.11 0.06,-0.16l0.66 -1.8c0.17,-0.42 0.35,-0.82 0.56,-1.22 -0.14,-0.2 -0.32,-0.25 -0.68,-0.98 -0.03,-0.07 -0.05,-0.11 -0.09,-0.18 -0.28,-0.56 -0.52,-1.13 -0.74,-1.73 -0.05,-0.14 -0.09,-0.28 -0.14,-0.41 -0.05,-0.13 -0.1,-0.28 -0.14,-0.42l-0.48 -1.7c-0.07,-0.29 -0.14,-0.59 -0.19,-0.89l-0.15 -0.96 -0.37 -0.72c-0.15,-0.25 -0.52,-1.17 -0.67,-1.51l-0.31 -0.8c-0.05,-0.15 -0.1,-0.25 -0.16,-0.4l-0.85 -2.41c-0.05,-0.14 -0.09,-0.29 -0.13,-0.42 -0.09,-0.27 -0.18,-0.56 -0.27,-0.82l-0.87 -2.97c-0.04,-0.14 -0.08,-0.29 -0.11,-0.42 -0.04,-0.16 -0.08,-0.28 -0.12,-0.43l-0.21 -0.87c-0.15,-0.58 -0.4,-1.69 -0.49,-2.24 -0.05,-0.3 -0.12,-0.61 -0.18,-0.91l-0.15 -0.93c-0.09,-0.55 -0.3,-2.13 -0.31,-2.7 -0,-0.09 0,-0.18 0,-0.27 -0,-0.11 -0.02,-0.14 -0.02,-0.26l-0.02 -0.78c0,-0.2 0.02,-0.31 0.02,-0.49 -0,-0.44 0.04,-0.94 0.11,-1.35 0.16,-0.95 0.46,-2.04 1.27,-2.63 0.51,-0.37 1.03,-0.45 1.77,-0.45 0.57,0 1.44,0.19 1.92,0.38 0.12,0.05 0.23,0.07 0.35,0.12 0.12,0.05 0.22,0.09 0.33,0.14 0.53,0.22 1.04,0.47 1.55,0.73 0.1,0.05 0.18,0.11 0.3,0.17 0.31,0.15 0.58,0.33 0.87,0.5 0.06,0.04 0.09,0.06 0.15,0.1l0.42 0.26c0.38,0.22 0.74,0.48 1.1,0.74l1.34 0.97c0.33,0.22 0.93,0.71 1.28,0.99 0.35,0.28 0.67,0.54 1.01,0.83 0.09,0.08 0.17,0.13 0.25,0.21l0.51 0.42c0.05,0.04 0.07,0.07 0.11,0.11 0.06,0.04 0.07,0.05 0.12,0.1l0.63 0.54c0.38,0.35 0.99,0.85 1.32,1.19 0.09,0.09 0.16,0.13 0.24,0.22 0.05,0.05 0.07,0.08 0.12,0.12 0.21,0.16 0.4,0.36 0.59,0.55 0.09,0.09 0.16,0.13 0.24,0.22l0.37 0.34c0.16,0.15 0.29,0.32 0.46,0.45 0.07,0.06 0.05,0.06 0.11,0.12 0.04,0.04 0.08,0.06 0.13,0.11l1.02 1.02c0.52,0.52 0.34,0.5 0.86,0.36 0.13,-0.03 0.24,-0.05 0.38,-0.08 1.05,-0.24 2.11,-0.43 3.17,-0.62 1.09,-0.19 2.2,-0.37 3.3,-0.5 0.29,-0.03 0.56,-0.06 0.86,-0.1 0.29,-0.04 0.59,-0.06 0.86,-0.09 0.43,-0.05 0.88,-0.04 1.31,-0.11 0.11,-0.02 0.34,-0.03 0.43,-0.03l2.24 -0.11c0.69,0 2.59,-0.04 3.09,0.02l0.73 0.03c0.23,0.01 0.5,-0 0.72,0.03l1.07 0.08c0.13,0 0.22,0.01 0.35,0.02 0.22,0.02 0.48,0.05 0.69,0.06 0.9,0.07 1.82,0.19 2.72,0.33 0.88,0.14 1.74,0.24 2.6,0.42l1.27 0.23 1.84 -1.51c0.43,-0.33 0.9,-0.74 1.35,-1.09 0.42,-0.32 0.82,-0.68 1.25,-0.99 0.09,-0.07 0.16,-0.12 0.25,-0.19 0.25,-0.19 0.51,-0.37 0.75,-0.58l2.27 -1.72c0.09,-0.07 0.17,-0.13 0.25,-0.19l1.04 -0.76c0.18,-0.13 0.34,-0.25 0.51,-0.37 0.09,-0.07 0.17,-0.11 0.26,-0.18l0.39 -0.28c0.04,-0.03 0.09,-0.05 0.14,-0.09l0.26 -0.18c0.09,-0.06 0.16,-0.12 0.26,-0.18l1.06 -0.72c0.09,-0.06 0.17,-0.12 0.27,-0.17 0.06,-0.04 0.09,-0.06 0.14,-0.1 0.3,-0.21 0.64,-0.4 0.95,-0.6l0.55 -0.34c0.67,-0.37 1.34,-0.77 2.05,-1.05 0.59,-0.24 1.18,-0.43 1.77,-0.08 0.59,0.36 0.97,0.85 1.19,1.52 0.03,0.1 0.06,0.19 0.08,0.29 0.11,0.43 0.2,0.9 0.19,1.36 -0,0.14 0.02,0.28 0.02,0.42zm-23.59 29.94c0.39,0.09 1,-0.15 1.22,-0.13 0.06,0.01 0.12,0.03 0.12,0.1l-0.01 0.11c-0.15,0.42 -0.93,0.84 -1.31,1.06 -0.18,0.11 -0.5,0.33 -0.61,0.5 -0.07,0.12 -0.06,0.47 -0.09,0.64 -0.04,0.22 -0.21,0.96 -0.44,1.02 -0.05,-0.11 -0.03,-0.2 -0,-0.34 0.16,-0.92 -0.13,-1.05 -0.13,-2.24 0,-0.59 0.23,-1.31 0.89,-1.31 0.26,0 0.5,-0.01 0.71,0.13 -0.06,0.26 -0.32,0.24 -0.33,0.44zm-6.7 -1.26c-0.18,-0.37 0.24,-1.21 0.5,-1.49 0.07,-0.07 0.14,-0.12 0.22,-0.18 0.54,-0.36 1.39,-0.06 1.93,0.14 0.39,0.14 0.44,0.2 0.9,0.32 0.59,0.15 1.04,-0.09 1.59,-0.29 0.5,-0.19 1.09,-0.39 1.62,-0.27 0.29,0.07 0.58,0.26 0.75,0.49 0.3,0.42 0.51,1.01 0.38,1.6 -0.1,-0.01 -0.1,-0.06 -0.16,-0.2 -0.17,-0.43 -0.26,-0.84 -0.55,-1.25 -0.3,-0.43 -0.7,-0.3 -1.17,-0.15 -0.09,0.03 -0.18,0.06 -0.28,0.09l-0.84 0.29c-0.82,0.27 -1.33,0.04 -2.1,-0.17 -0.2,-0.06 -0.38,-0.13 -0.59,-0.19 -0.44,-0.11 -0.92,-0.36 -1.2,-0.07 -0.36,0.37 -0.51,0.74 -0.79,1.14 -0.05,0.08 -0.11,0.17 -0.22,0.18zm-16.33 -4.3c0,-0.53 -0.02,-0.58 0.07,-1.11 0.03,-0.18 0.07,-0.37 0.12,-0.55 0.05,-0.18 0.11,-0.33 0.17,-0.49l0.33 -0.67c0.13,-0.21 0.25,-0.4 0.42,-0.58 0.4,-0.43 0.56,-0.57 1.12,-0.85 0.15,-0.08 0.31,-0.12 0.47,-0.2 0.09,-0.04 0.13,-0.07 0.23,-0.11 0.09,-0.04 0.15,-0.06 0.23,-0.1 0.14,-0.07 0.32,-0.14 0.47,-0.2 0.09,-0.03 0.14,-0.06 0.23,-0.1 0.6,-0.23 1.36,-0.41 2.03,-0.41 0.43,0 0.91,0.08 1.27,0.15 0.6,0.12 1.1,0.28 1.64,0.51 0.24,0.1 0.69,0.36 0.91,0.51 0.36,0.24 0.89,0.67 1.16,0.99 0.11,0.14 0.21,0.25 0.32,0.39l0.31 0.42c0.81,1.18 0.86,2.16 0.57,3.58 -0.16,0.77 -0.75,0.97 -1.11,0.45 -0.09,0.06 -0.18,0.16 -0.28,0.23 -0.1,0.08 -0.2,0.15 -0.3,0.24 -0.06,0.06 -0.08,0.06 -0.15,0.11 -0.06,0.04 -0.09,0.07 -0.15,0.12 -0.39,0.32 -1.23,0.77 -1.69,0.95 -0.7,0.28 -1.84,0.54 -2.64,0.47 -0.17,-0.01 -0.35,0.01 -0.52,-0.01 -0.17,-0.03 -0.32,-0.02 -0.49,-0.04 -0.83,-0.1 -1.68,-0.34 -2.43,-0.73 -0.32,-0.17 -0.51,-0.3 -0.8,-0.51l-0.43 -0.37c-0.17,-0.16 -0.46,-0.53 -0.59,-0.74 -0.25,-0.4 -0.51,-0.84 -0.51,-1.35zm28.47 -6.19c1,0 1.62,0.23 2.45,0.74 0.25,0.15 0.81,0.62 1.02,0.85l0.37 0.43c0.04,0.06 0.1,0.12 0.13,0.18 0.2,0.32 0.26,0.41 0.44,0.76 0.59,1.19 0.63,2.67 0.13,3.91 -0.35,0.88 -1.06,1.6 -1.94,1.95 -1.78,0.71 -3.63,0.29 -5.17,-0.77 -0.2,-0.14 -0.5,-0.41 -0.56,-0.46 -0.25,0.47 -0.68,0.53 -1.06,0.02 -0.32,-0.43 -0.56,-1.47 -0.67,-2.02 -0.05,-0.26 -0.06,-0.5 -0.1,-0.79 -0.01,-0.11 -0.01,-0.29 -0.03,-0.42 -0.04,-0.25 0.06,-0.92 0.14,-1.17 0.25,-0.74 1.02,-1.45 1.65,-1.93 0.51,-0.39 0.86,-0.55 1.41,-0.83 0.39,-0.2 1.27,-0.46 1.78,-0.46zm10.21 2.04l0.03 0.04 -0.03 -0.04zm-48.05 -4.95c-0.06,-0.02 -0.03,0 -0.07,-0.04 0.06,0.02 0.03,-0 0.07,0.04zm-0.07 -0.04l0 0zm0.04 -1.8l-0.02 -0.02 0.02 0.02zm-0.02 -0.02l-0.02 -0.02 0.02 0.02zm-0.02 -0.02l0 0zm-0.34 12.85l-0.04 0.03 0.03 -0.04 0.33 -1.27c0.17,-0.54 0.31,-1.07 0.52,-1.61l0.75 -1.93c0.46,-0.99 0.9,-1.88 1.49,-2.79 0.23,-0.34 0.34,-0.27 -0.19,-0.99 -0.26,-0.36 -0.69,-0.81 -1.03,-1.12l-0.28 -0.25c-0.09,-0.07 -0.19,-0.17 -0.29,-0.25l-0.89 -0.73c0.12,0.03 1.5,0.78 1.77,0.94 0.08,0.05 0.12,0.08 0.2,0.13 0.08,0.05 0.13,0.08 0.2,0.13 0.23,0.17 0.33,0.22 0.58,0.44l0.54 0.51c-0.03,-0.13 -0.24,-0.48 -0.31,-0.6l-0.58 -0.77c-0.37,-0.45 -1.11,-1.27 -1.52,-1.68 -0.07,-0.07 -0.16,-0.15 -0.22,-0.22 -0.17,-0.21 -0.55,-0.55 -0.67,-0.73 0.08,0.02 0.05,0.02 0.11,0.07l2.39 1.95c0.04,0.03 0.06,0.06 0.1,0.1l0.69 0.71c0.06,0.07 0.02,0.07 0.11,0.09 -0.13,-0.24 -0.58,-1.53 -0.84,-2.06 -0.06,-0.13 -0.12,-0.25 -0.19,-0.38l-0.33 -0.53c-0.04,-0.06 -0.1,-0.13 -0.12,-0.19 0.06,0.04 0.1,0.09 0.17,0.14l0.53 0.47c0.22,0.22 0.43,0.45 0.61,0.72 0.25,0.37 0.28,0.42 0.5,0.83 0.03,0.05 0.04,0.06 0.05,0.1 0.09,0.18 0.32,0.65 0.36,0.82 0.11,-0.03 0.39,-0.4 0.49,-0.51l1.21 -1.19c0.15,-0.15 0.41,-0.33 0.56,-0.47l0.6 -0.44c-0.02,0.08 -0.47,0.65 -0.53,0.72 -0.05,0.06 -0.08,0.11 -0.13,0.18l-0.8 1.07c-0.05,0.07 -0.07,0.11 -0.13,0.18l-2 2.97 -0.7 1.19c-0.22,0.37 -0.58,1.11 -0.76,1.41l-0.21 0.41c-0.04,0.08 -0.06,0.13 -0.1,0.21l-1.72 3.57c-0.04,0.08 -0.07,0.13 -0.1,0.21l-0.2 0.45zm48.45 -6.01c-0.1,-0.07 -0.66,-0.75 -0.78,-0.88 -0.05,-0.05 -0.06,-0.08 -0.11,-0.13l-0.44 -0.51c-0.04,-0.05 -0.06,-0.08 -0.1,-0.12l-0.23 -0.26c-0.05,-0.06 -0.06,-0.07 -0.11,-0.13 -0.05,-0.05 -0.05,-0.07 -0.1,-0.12 -0.23,-0.26 -0.71,-0.84 -0.89,-1.02l-0.67 -0.78c-0.12,-0.14 -0.18,-0.17 -0.34,-0.37l-0.49 -0.51c-0,-0 -0.01,-0.01 -0.01,-0.01l-0.43 -0.46c-0.47,-0.46 -0.92,-0.99 -1.4,-1.46l-1.17 -1.25c0.1,0.02 1.03,0.61 1.24,0.72l0.89 0.53c0.08,0.05 0.68,0.42 0.72,0.41l0.83 -0.5c0.15,-0.07 0.3,-0.16 0.45,-0.22 0.89,-0.35 1.61,-0.45 2.58,-0.23 0.09,0.02 0.15,0.02 0.24,0.07l0.03 0.02c-0.39,0.01 -1.66,0.25 -2.04,0.38 -0.44,0.15 -0.61,0.24 -0.98,0.51 -0.11,0.08 -0.39,0.35 -0.47,0.47 0.21,-0.02 0.87,-0.38 2,-0.29 0.59,0.05 0.92,0.15 1.44,0.29 0.07,0.02 0.13,0.04 0.22,0.07 0.03,0.01 0.06,0.02 0.1,0.03 0.07,0.02 0.06,0.02 0.1,0.05 -0.32,0 -1.85,-0.02 -2.04,0.01 -0.4,0.05 -0.84,0.13 -1.13,0.4 -0.08,0.07 -0.2,0.2 -0.23,0.31l0.77 -0.05c0.55,-0.07 1.8,0.03 2.32,0.11 0.48,0.07 0.92,0.18 1.31,0.34 0.3,0.12 0.83,0.37 1.01,0.65 -0.07,-0.02 -0.51,-0.19 -0.79,-0.27 -0.49,-0.13 -0.95,-0.27 -1.49,-0.35 -0.66,-0.09 -1.62,-0.17 -2.3,0.05l-0.27 0.1c0.01,0.09 0.07,0.12 0.18,0.26 0.39,0.49 0.61,0.79 0.96,1.28l0.37 0.54c0.03,0.04 0.05,0.09 0.09,0.14l0.76 1.26c0.03,0.06 0.04,0.1 0.07,0.15 0.12,0.21 0.13,0.26 0.22,0.44 0.03,0.07 0.13,0.25 0.13,0.33zm-7.28 -8.01l-0.02 -0.02 0.02 0.02zm-0.02 -0.02l0 0z"/>
   <path class="fil1" d="M24.74 28.03c-0.31,0 -0.51,-0.03 -0.74,-0.26 -0.15,-0.15 -0.28,-0.33 -0.28,-0.56 -0.78,0 -0.93,1.8 -0.98,2.35 -0.04,0.46 -0.06,0.75 -0.06,1.24 -0.17,-0 -0.58,-0.3 -0.74,-0.42 -0.4,-0.31 -0.55,-0.49 -0.87,-0.89 -0.05,-0.06 -0.07,-0.11 -0.11,-0.17 -0.29,-0.42 -0.39,-0.76 -0.39,-1.3 0,-0.44 0.32,-0.95 0.56,-1.31 0.53,-0.78 1.19,-1.31 2.07,-1.68 0.94,-0.4 2.38,-0.43 3.37,-0.1 0.6,0.2 1.29,0.65 1.69,1.11l0.22 0.27c0.4,0.54 0.39,0.53 0.68,1.12 0.11,0.22 0.2,0.52 0.26,0.76 0.12,0.48 0.12,0.88 -0.22,1.28 -0.31,0.36 -0.69,0.66 -1.11,0.89 -0.06,0.03 -0.1,0.05 -0.16,0.08 -0.07,0.04 -0.09,0.05 -0.15,0.09 -0.07,0.04 -0.29,0.14 -0.36,0.15 0,-0.34 -0.02,-0.63 -0.06,-0.92 -0.11,-0.88 -0.13,-1.22 -0.32,-2.13 -0.14,-0.67 -0.36,-0.11 -0.62,-0.11 -0.16,0 -0.3,-0.09 -0.37,-0.18 -0.1,-0.14 -0.01,-0.33 -0.25,-0.33 -0.26,0 -0.05,0.19 -0.37,0.65 -0.11,0.17 -0.41,0.37 -0.68,0.37zm-0.2 3.53c1.34,0 1.91,-0.09 3.07,-0.68 0.07,-0.04 0.09,-0.05 0.15,-0.09 0.07,-0.04 0.11,-0.05 0.17,-0.09l0.61 -0.37c0.26,-0.17 0.65,-0.41 0.88,-0.61 0.05,-0.04 0.09,-0.06 0.14,-0.1l0.56 -0.44c0.05,-0.04 0.09,-0.09 0.16,-0.11 0,0.01 0.25,1.14 0.52,0.28 0.11,-0.35 0.19,-1.1 0.19,-1.48 0,-0.32 -0.14,-0.76 -0.23,-1.01 -0.33,-0.81 -0.7,-1.26 -1.27,-1.84 -0.12,-0.12 -0.22,-0.19 -0.34,-0.3 -0.15,-0.14 -0.37,-0.27 -0.54,-0.39l-0.59 -0.34c-0.55,-0.29 -1.78,-0.72 -2.41,-0.72 -1.17,0 -1.53,0.03 -2.61,0.39 -0.36,0.12 -0.68,0.28 -1.01,0.43 -0.29,0.13 -0.67,0.35 -0.91,0.55 -0.11,0.1 -0.2,0.17 -0.3,0.28l-0.25 0.32c-0.07,0.1 -0.17,0.24 -0.23,0.35 -0.33,0.65 -0.46,0.94 -0.61,1.72 -0.06,0.29 -0.11,0.73 -0.07,1.04 0.02,0.18 0.09,0.29 0.16,0.42 0.07,0.14 0.13,0.23 0.21,0.36 0.46,0.75 1.04,1.24 1.79,1.69 0.3,0.18 0.88,0.41 1.23,0.5 0.46,0.12 1.04,0.22 1.54,0.22z"/>
   <path class="fil1" d="M45.47 24.65c0.02,-0.08 0.07,-0.11 0.14,-0.15 0.42,-0.23 1.31,-0.41 1.77,-0.41 0.83,0 1.44,0.08 2.1,0.52 0.26,0.17 0.53,0.43 0.7,0.7 0.2,0.3 0.17,0.26 0.33,0.58 0.37,0.75 0.6,1.45 0.6,2.35 0,0.72 -0.31,1.42 -0.96,1.74 -0.32,0.16 -1.57,0.64 -1.71,0.15l-0.03 -1.19c-0.08,-0.58 -0.03,-0.97 -0.25,-1.66 -0.09,-0.29 -0.23,-0.74 -0.6,-0.74 -0.06,0 -0.16,0.11 -0.21,0.15 -0.91,0.69 -1.33,-0.01 -1.63,-0.01 -0.74,0 -1.26,1.01 -1.26,-0.27 0,-0.25 0.14,-0.44 0.25,-0.59 0.04,-0.05 0.06,-0.06 0.11,-0.09 0.33,-0.27 0.6,-0.37 1,-0.51 0.12,-0.04 0.2,-0.07 0.32,-0.1 0.08,-0.02 0.29,-0.06 0.29,-0.15 0,-0.12 -0.34,-0.14 -0.49,-0.16 -0.2,-0.02 -0.38,-0.04 -0.47,-0.18zm-2.4 1.46c0,0.63 0.09,1.44 0.27,2.04 0.03,0.11 0.4,1.44 0.57,1.44 0.24,0 0.27,-0.42 0.47,-0.55 0.09,0.02 0.37,0.27 0.48,0.35 1.3,0.94 2.68,1.5 4.34,1.32 0.65,-0.07 1.32,-0.44 1.8,-0.86 0.28,-0.25 0.45,-0.49 0.64,-0.8 0.28,-0.46 0.48,-1.41 0.48,-2 0,-0.54 -0.15,-1.29 -0.38,-1.79 -0.2,-0.43 -0.33,-0.64 -0.6,-1.02 -0.04,-0.06 -0.07,-0.1 -0.12,-0.15 -0.38,-0.4 -0.21,-0.28 -0.71,-0.66 -0.7,-0.53 -1.38,-0.88 -2.28,-1.01 -0.79,-0.11 -1.65,0.22 -2.34,0.57 -0.07,0.04 -0.11,0.07 -0.18,0.1 -0.25,0.13 -0.44,0.27 -0.67,0.42l-0.3 0.23c-0.42,0.35 -1.07,0.94 -1.28,1.45 -0.11,0.27 -0.18,0.56 -0.18,0.93z"/>
   <polygon class="fil2" points="9.4,30.05 9.39,30.03 9.36,30.08 "/>
  </g>
  <path class="fil3 str0" d="M12.3 21.43c0.53,0.72 0.41,0.65 0.19,0.99 -0.6,0.91 -1.03,1.8 -1.49,2.79l-0.75 1.93c-0.21,0.54 -0.35,1.07 -0.52,1.61l-0.33 1.27 0.01 0.02 0.2 -0.45c0.04,-0.08 0.07,-0.13 0.1,-0.21l1.72 -3.57c0.04,-0.08 0.06,-0.13 0.1,-0.21l0.21 -0.41c0.18,-0.3 0.54,-1.04 0.76,-1.41l0.7 -1.19 2 -2.97c0.06,-0.07 0.08,-0.11 0.13,-0.18l0.8 -1.07c0.05,-0.07 0.08,-0.12 0.13,-0.18 0.06,-0.07 0.51,-0.64 0.53,-0.72l-0.6 0.44c-0.15,0.13 -0.4,0.31 -0.56,0.47l-1.21 1.19c-0.1,0.1 -0.38,0.48 -0.49,0.51 -0.04,-0.16 -0.27,-0.63 -0.36,-0.82 -0.02,-0.04 -0.03,-0.05 -0.05,-0.1 -0.22,-0.42 -0.25,-0.46 -0.5,-0.83 -0.18,-0.27 -0.39,-0.5 -0.61,-0.72l-0.53 -0.47c-0.07,-0.05 -0.11,-0.1 -0.17,-0.14 0.02,0.06 0.08,0.13 0.12,0.19l0.33 0.53c0.07,0.14 0.13,0.26 0.19,0.38 0.27,0.53 0.71,1.82 0.84,2.06 -0.09,-0.02 -0.04,-0.02 -0.11,-0.09l-0.69 -0.71c-0.04,-0.04 -0.06,-0.07 -0.1,-0.1l-2.39 -1.95c-0.06,-0.05 -0.03,-0.05 -0.11,-0.07 0.12,0.18 0.5,0.52 0.67,0.73 0.06,0.08 0.15,0.15 0.22,0.22 0.4,0.4 1.15,1.22 1.52,1.68l0.58 0.77c0.08,0.12 0.29,0.47 0.31,0.6l-0.54 -0.51c-0.25,-0.22 -0.35,-0.27 -0.58,-0.44 -0.07,-0.05 -0.12,-0.09 -0.2,-0.13 -0.08,-0.05 -0.12,-0.08 -0.2,-0.13 -0.27,-0.16 -1.64,-0.91 -1.77,-0.94l0.89 0.73c0.1,0.08 0.19,0.18 0.29,0.25l0.28 0.25c0.34,0.31 0.76,0.76 1.03,1.12z"/>
  <path class="fil3 str0" d="M21.4 23.93c-0.56,0.28 -0.72,0.43 -1.12,0.85 -0.17,0.18 -0.29,0.37 -0.42,0.58l-0.33 0.67c-0.06,0.17 -0.12,0.32 -0.17,0.49 -0.05,0.17 -0.09,0.36 -0.12,0.55 -0.09,0.53 -0.07,0.58 -0.07,1.11 0,0.51 0.26,0.95 0.51,1.35 0.13,0.21 0.42,0.58 0.59,0.74l0.43 0.37c0.29,0.21 0.47,0.34 0.8,0.51 0.74,0.39 1.59,0.62 2.43,0.73 0.18,0.02 0.32,0.01 0.49,0.04 0.17,0.03 0.35,-0 0.52,0.01 0.8,0.07 1.93,-0.19 2.64,-0.47 0.46,-0.18 1.3,-0.64 1.69,-0.95 0.05,-0.04 0.09,-0.07 0.15,-0.12 0.07,-0.05 0.09,-0.06 0.15,-0.11 0.09,-0.09 0.19,-0.16 0.3,-0.24 0.09,-0.07 0.19,-0.17 0.28,-0.23 0.35,0.53 0.95,0.32 1.11,-0.45 0.29,-1.41 0.24,-2.39 -0.57,-3.58l-0.31 -0.42c-0.11,-0.14 -0.21,-0.25 -0.32,-0.39 -0.27,-0.32 -0.8,-0.75 -1.16,-0.99 -0.22,-0.15 -0.67,-0.4 -0.91,-0.51 -0.54,-0.23 -1.04,-0.39 -1.64,-0.51 -0.36,-0.07 -0.84,-0.15 -1.27,-0.15 -0.67,0 -1.43,0.18 -2.03,0.41 -0.09,0.04 -0.15,0.06 -0.23,0.1 -0.15,0.06 -0.33,0.12 -0.47,0.2 -0.08,0.04 -0.14,0.06 -0.23,0.1 -0.1,0.04 -0.14,0.06 -0.23,0.11 -0.16,0.08 -0.31,0.12 -0.47,0.2zm-0.32 0.72c0.24,-0.2 0.62,-0.42 0.91,-0.55 0.34,-0.15 0.65,-0.31 1.01,-0.43 1.09,-0.36 1.44,-0.39 2.61,-0.39 0.63,0 1.87,0.42 2.41,0.72l0.59 0.34c0.18,0.11 0.39,0.25 0.54,0.39 0.12,0.11 0.23,0.18 0.34,0.3 0.57,0.57 0.94,1.03 1.27,1.84 0.1,0.24 0.23,0.69 0.23,1.01 0,0.38 -0.07,1.13 -0.19,1.48 -0.28,0.85 -0.52,-0.27 -0.52,-0.28 -0.06,0.02 -0.11,0.07 -0.16,0.11l-0.56 0.44c-0.05,0.04 -0.09,0.06 -0.14,0.1 -0.23,0.19 -0.62,0.44 -0.88,0.61l-0.61 0.37c-0.06,0.04 -0.11,0.06 -0.17,0.09 -0.07,0.04 -0.08,0.05 -0.15,0.09 -1.16,0.59 -1.73,0.68 -3.07,0.68 -0.5,0 -1.07,-0.1 -1.54,-0.22 -0.35,-0.09 -0.93,-0.32 -1.23,-0.5 -0.75,-0.45 -1.33,-0.94 -1.79,-1.69 -0.08,-0.13 -0.14,-0.22 -0.21,-0.36 -0.07,-0.13 -0.14,-0.24 -0.16,-0.42 -0.03,-0.31 0.01,-0.75 0.07,-1.04 0.16,-0.78 0.29,-1.07 0.61,-1.72 0.06,-0.11 0.15,-0.25 0.23,-0.35l0.25 -0.32c0.1,-0.11 0.19,-0.18 0.3,-0.28z"/>
  <path class="fil3 str0" d="M23.2 25.04c-0.88,0.37 -1.54,0.9 -2.07,1.68 -0.24,0.36 -0.56,0.86 -0.56,1.31 0,0.54 0.11,0.87 0.39,1.3 0.05,0.07 0.07,0.11 0.11,0.17 0.32,0.39 0.47,0.58 0.87,0.89 0.15,0.12 0.57,0.41 0.74,0.42 0,-0.5 0.03,-0.78 0.06,-1.24 0.05,-0.55 0.2,-2.35 0.98,-2.35 0.01,0.23 0.14,0.41 0.28,0.56 0.23,0.23 0.43,0.26 0.74,0.26 0.27,0 0.56,-0.2 0.68,-0.37 0.32,-0.47 0.1,-0.65 0.37,-0.65 0.24,0 0.15,0.19 0.25,0.33 0.07,0.09 0.22,0.18 0.37,0.18 0.26,0 0.48,-0.56 0.62,0.11 0.19,0.91 0.2,1.25 0.32,2.13 0.04,0.28 0.06,0.58 0.06,0.92 0.07,-0.01 0.29,-0.11 0.36,-0.15 0.07,-0.04 0.09,-0.05 0.15,-0.09 0.06,-0.03 0.1,-0.05 0.16,-0.08 0.42,-0.23 0.8,-0.53 1.11,-0.89 0.34,-0.4 0.34,-0.79 0.22,-1.28 -0.06,-0.24 -0.15,-0.54 -0.26,-0.76 -0.3,-0.58 -0.28,-0.57 -0.68,-1.12l-0.22 -0.27c-0.4,-0.45 -1.09,-0.91 -1.69,-1.11 -0.99,-0.33 -2.43,-0.3 -3.37,0.1z"/>
  <path class="fil3 str0" d="M37.06 33.6c-0.28,0.12 -0.75,0.56 -1.13,0.04 -0.09,-0.12 -0.19,-0.28 -0.29,-0.35 -0.41,0.27 0.5,1.21 0.73,1.43 0.21,0.2 0.64,0.5 0.9,0.58 0.12,0.04 0.22,0.05 0.32,0.1 0.39,0.18 0.58,0.61 0.71,1 0.06,0.19 0.13,0.57 0.18,0.66 0.1,-0.03 0.11,-0.09 0.14,-0.2 0.14,-0.5 -0.07,-0.98 -0.07,-1.29 0,-0.46 0.48,-1.33 -0.04,-1.91 -0.37,-0.42 -1.01,-0.26 -1.45,-0.06z"/>
  <path class="fil3 str0" d="M41.83 33.17c-0.66,0 -0.89,0.71 -0.89,1.31 0,1.19 0.29,1.32 0.13,2.24 -0.02,0.13 -0.05,0.22 0,0.34 0.23,-0.06 0.4,-0.8 0.44,-1.02 0.03,-0.18 0.02,-0.52 0.09,-0.64 0.11,-0.17 0.43,-0.39 0.61,-0.5 0.38,-0.22 1.17,-0.64 1.31,-1.06l0.01 -0.11c-0,-0.07 -0.06,-0.09 -0.12,-0.1 -0.22,-0.02 -0.83,0.22 -1.22,0.13 0.02,-0.2 0.27,-0.18 0.33,-0.44 -0.21,-0.14 -0.45,-0.13 -0.71,-0.13z"/>
  <path class="fil3 str0" d="M38.3 31.42c0.77,0.21 1.29,0.44 2.1,0.17l0.84 -0.29c0.1,-0.04 0.19,-0.06 0.28,-0.09 0.47,-0.15 0.87,-0.27 1.17,0.15 0.29,0.4 0.38,0.82 0.55,1.25 0.06,0.14 0.06,0.19 0.16,0.2 0.14,-0.59 -0.08,-1.18 -0.38,-1.6 -0.17,-0.23 -0.46,-0.43 -0.75,-0.49 -0.54,-0.12 -1.12,0.08 -1.62,0.27 -0.55,0.21 -1,0.45 -1.59,0.29 -0.46,-0.12 -0.52,-0.17 -0.9,-0.32 -0.55,-0.2 -1.4,-0.51 -1.93,-0.14 -0.08,0.05 -0.16,0.11 -0.22,0.18 -0.27,0.28 -0.68,1.12 -0.5,1.49 0.11,-0.01 0.17,-0.1 0.22,-0.18 0.27,-0.41 0.42,-0.78 0.79,-1.14 0.28,-0.28 0.76,-0.03 1.2,0.07 0.21,0.05 0.39,0.13 0.59,0.19z"/>
  <path class="fil4 str0" d="M45.71 26.69c0.31,0 0.73,0.7 1.63,0.01 0.05,-0.04 0.14,-0.15 0.21,-0.15 0.37,0 0.5,0.45 0.6,0.74 0.22,0.68 0.18,1.07 0.25,1.66l0.03 1.19c0.14,0.48 1.39,0 1.71,-0.15 0.66,-0.33 0.96,-1.02 0.96,-1.74 0,-0.91 -0.22,-1.6 -0.6,-2.35 -0.16,-0.32 -0.13,-0.28 -0.33,-0.58 -0.17,-0.26 -0.44,-0.52 -0.7,-0.7 -0.66,-0.44 -1.26,-0.52 -2.1,-0.52 -0.46,0 -1.35,0.18 -1.77,0.41 -0.07,0.04 -0.12,0.07 -0.14,0.15 0.09,0.14 0.27,0.15 0.47,0.18 0.15,0.02 0.49,0.04 0.49,0.16 0,0.1 -0.21,0.13 -0.29,0.15 -0.12,0.03 -0.21,0.06 -0.32,0.1 -0.41,0.14 -0.67,0.24 -1,0.51 -0.05,0.04 -0.06,0.04 -0.11,0.09 -0.12,0.15 -0.25,0.34 -0.25,0.59 0,1.28 0.53,0.27 1.26,0.27z"/>
  <path class="fil3 str0" d="M43.34 28.16c-0.18,-0.6 -0.27,-1.41 -0.27,-2.04 0,-0.37 0.07,-0.66 0.18,-0.93 0.2,-0.51 0.86,-1.1 1.28,-1.45l0.3 -0.23c0.23,-0.15 0.42,-0.28 0.67,-0.42 0.07,-0.04 0.11,-0.07 0.18,-0.1 0.7,-0.34 1.55,-0.68 2.34,-0.57 0.9,0.13 1.58,0.48 2.28,1.01 0.5,0.38 0.33,0.27 0.71,0.66 0.05,0.05 0.08,0.09 0.12,0.15 0.27,0.38 0.4,0.58 0.6,1.02 0.23,0.5 0.38,1.25 0.38,1.79 0,0.6 -0.21,1.54 -0.48,2 -0.19,0.31 -0.36,0.55 -0.64,0.8 -0.48,0.42 -1.16,0.79 -1.8,0.86 -1.66,0.18 -3.04,-0.38 -4.34,-1.32 -0.1,-0.07 -0.38,-0.32 -0.48,-0.35 -0.19,0.13 -0.23,0.55 -0.47,0.55 -0.17,0 -0.54,-1.34 -0.57,-1.44zm-0.65 -1.37c0.04,0.28 0.05,0.52 0.1,0.79 0.11,0.55 0.35,1.59 0.67,2.02 0.38,0.51 0.81,0.45 1.06,-0.02 0.06,0.04 0.36,0.32 0.56,0.46 1.54,1.06 3.39,1.48 5.17,0.77 0.87,-0.35 1.58,-1.06 1.94,-1.95 0.5,-1.24 0.46,-2.72 -0.13,-3.91 -0.17,-0.35 -0.24,-0.44 -0.44,-0.76 -0.04,-0.06 -0.09,-0.12 -0.13,-0.18l-0.37 -0.43c-0.21,-0.22 -0.77,-0.7 -1.02,-0.85 -0.83,-0.51 -1.46,-0.74 -2.45,-0.74 -0.52,0 -1.39,0.26 -1.78,0.46 -0.55,0.28 -0.9,0.43 -1.41,0.83 -0.62,0.48 -1.4,1.18 -1.65,1.93 -0.08,0.24 -0.18,0.92 -0.14,1.17 0.02,0.13 0.01,0.3 0.03,0.42z"/>
  <path class="fil4 str0" d="M51.75 17.27c0.48,0.48 0.93,1 1.4,1.46l0.43 0.46c0,0 0.01,0.01 0.01,0.01l0.49 0.51c0.17,0.2 0.22,0.23 0.34,0.37l0.67 0.78c0.18,0.18 0.65,0.76 0.89,1.02 0.05,0.05 0.05,0.07 0.1,0.12 0.06,0.06 0.06,0.07 0.11,0.13l0.23 0.26c0.04,0.05 0.06,0.07 0.1,0.12l0.44 0.51c0.05,0.05 0.06,0.08 0.11,0.13 0.12,0.13 0.68,0.82 0.78,0.88 -0.01,-0.08 -0.1,-0.27 -0.13,-0.33 -0.09,-0.18 -0.1,-0.23 -0.22,-0.44 -0.03,-0.06 -0.04,-0.1 -0.07,-0.15l-0.76 -1.26c-0.03,-0.05 -0.06,-0.09 -0.09,-0.14l-0.37 -0.54c-0.35,-0.49 -0.57,-0.8 -0.96,-1.28 -0.11,-0.14 -0.17,-0.17 -0.18,-0.26l0.27 -0.1c0.67,-0.22 1.64,-0.14 2.3,-0.05 0.55,0.07 1,0.22 1.49,0.35 0.28,0.08 0.72,0.25 0.79,0.27 -0.19,-0.28 -0.71,-0.53 -1.01,-0.65 -0.39,-0.16 -0.83,-0.27 -1.31,-0.34 -0.52,-0.08 -1.78,-0.18 -2.32,-0.11l-0.77 0.05c0.02,-0.11 0.15,-0.24 0.23,-0.31 0.29,-0.27 0.73,-0.35 1.13,-0.4 0.18,-0.02 1.71,-0.01 2.04,-0.01 -0.04,-0.04 -0.03,-0.03 -0.1,-0.05 -0.04,-0.01 -0.07,-0.02 -0.1,-0.03 -0.09,-0.02 -0.15,-0.05 -0.22,-0.07 -0.52,-0.14 -0.84,-0.24 -1.44,-0.29 -1.12,-0.09 -1.79,0.27 -2,0.29 0.08,-0.12 0.36,-0.39 0.47,-0.47 0.37,-0.26 0.54,-0.36 0.98,-0.51 0.38,-0.13 1.65,-0.37 2.04,-0.38l-0.03 -0.02c-0.09,-0.05 -0.15,-0.05 -0.24,-0.07 -0.97,-0.23 -1.69,-0.13 -2.58,0.23 -0.15,0.06 -0.3,0.15 -0.45,0.22l-0.83 0.5c-0.04,0 -0.63,-0.37 -0.72,-0.41l-0.89 -0.53c-0.21,-0.11 -1.13,-0.69 -1.24,-0.72l1.17 1.25z"/>
 </g>
</svg>
